<svg width="64" height="32" viewBox="0 0 64 32" fill="none" xmlns="http://www.w3.org/2000/svg">
<path d="M3 19.4259V28.5963H7.34868V19.7959C7.34868 16.7802 8.73893 15.2779 11.5973 15.2779C12.3313 15.2779 13.1543 15.3788 13.855 15.6143V11.2645C12.9875 11.0291 12.0644 10.8945 11.1635 10.8945C6.31434 10.8945 3 14.1344 3 19.4259Z" fill="#FF5200"/>
<path d="M21.2291 11.1301H16.8804V28.5965H21.2291V11.1301Z" fill="#FF5200"/>
<path d="M50.902 10.7266C46.1196 10.7266 43.0721 14.9418 40.2805 18.5517C37.4889 22.1279 35.9318 24.6055 33.207 24.6055C30.6489 24.6055 28.7916 22.4642 28.7916 19.8521C28.7916 17.1727 30.5822 15.0988 33.1736 15.0988C34.3303 15.0988 35.6649 15.6369 36.8883 16.8364L39.6132 13.6414C38.0228 11.9037 35.7984 10.7266 33.3071 10.7266C28.3244 10.7266 24.3428 14.8745 24.3428 19.8633C24.3428 25.2221 28.0241 29.0001 33.2737 29.0001C36.7215 29.0001 39.2351 27.184 42.0044 23.6189C44.6515 27.027 47.0093 29.0001 50.9576 29.0001C56.1071 29.0001 59.9886 25.1212 59.9886 19.8633C59.9997 14.8745 56.0403 10.7266 50.902 10.7266ZM51.0021 24.6167C48.2995 24.6167 46.4755 22.5988 44.5069 20.0875C46.7757 16.7804 48.622 15.11 50.9354 15.11C53.6602 15.11 55.551 17.184 55.551 19.8633C55.551 22.5427 53.727 24.6167 51.0021 24.6167Z" fill="#FF5200"/>
<path d="M19.1046 4C17.5142 4 16.4131 5.0426 16.4131 6.51121C16.4131 8.01345 17.5364 9.12332 19.1046 9.12332C20.6728 9.12332 21.7627 8.08072 21.7627 6.57848C21.7627 5.07623 20.6617 4 19.1046 4Z" fill="#FF5200"/>
</svg>
